<?xml version="1.0" encoding="utf-8"?>
<!-- Generator: Adobe Illustrator 28.3.0, SVG Export Plug-In . SVG Version: 6.00 Build 0)  -->
<svg version="1.1" id="Capa_1" xmlns="http://www.w3.org/2000/svg" xmlns:xlink="http://www.w3.org/1999/xlink" x="0px" y="0px"
	 viewBox="0 0 997.65 1080" style="enable-background:new 0 0 997.65 1080;" xml:space="preserve">
<style type="text/css">
	.st0{fill:#FFFFFF;}
</style>
<g>
	<path d="M501.77,1020.87c-256.97-0.02-465.7-208.89-465.34-465.63c0.36-257,208.62-465.13,465.39-465.09
		c256.97,0.03,465.71,208.91,465.34,465.64C966.78,812.81,758.56,1020.9,501.77,1020.87z M501.71,993.74
		c241.76,0.14,437.85-195.82,438.31-438.02c0.46-241.48-195.63-437.81-437.9-438.43C260.57,116.66,63.47,313.64,63.56,555.56
		C63.65,797.47,259.76,993.6,501.71,993.74z"/>
	<path class="st0" d="M501.71,993.74C259.76,993.6,63.65,797.47,63.56,555.56c-0.09-241.92,197.01-438.89,438.56-438.27
		c242.27,0.62,438.36,196.95,437.9,438.43C939.56,797.92,743.47,993.88,501.71,993.74z M792.07,818.25
		c1.32-1.62,2.16-2.61,2.96-3.63c9.82-12.61,20.68-24.55,29.27-37.94c51.91-80.9,61.66-166.56,23.66-255.31
		c-21.39-49.96-38.76-100.94-51.95-153.52c-12.2-48.6-23.71-97.39-39.69-144.96c-2-5.95-4.81-10.78-11.52-11.63
		c-6.49-0.82-10.39,2.96-13.74,8.06c-26.21,39.98-52.59,79.86-78.75,119.88c-2.17,3.32-3.99,3.76-7.59,2.48
		c-32.63-11.63-66.24-19.05-100.7-22.35c-63.44-6.09-125.37,1.14-185.57,22.22c-4.38,1.54-6.26,0.57-8.67-3.12
		c-26.15-40.03-52.52-79.91-78.77-119.88c-3.17-4.83-7.16-8.04-13.16-7.3c-6.2,0.76-9.52,4.9-11.26,10.63
		c-1.31,4.3-2.97,8.5-4.14,12.83c-12.75,47.25-25.66,94.45-38.06,141.79c-12.67,48.4-27.65,95.89-48.59,141.51
		c-24.4,53.18-29.85,108.84-17.35,166c10.78,49.32,34.49,92.02,68.04,129.46c1.25,1.4,2.44,2.86,4.12,4.82
		c-6.37,1.59-11.84,2.92-17.29,4.34c-5.26,1.37-8.95,4.47-9.93,10.02c-1.62,9.15,5.99,16.48,15.16,14.42
		c9.58-2.15,19.11-4.56,28.59-7.12c3.38-0.91,5.66-0.2,8.5,1.95c15.1,11.49,29.74,23.8,45.85,33.71
		c80.93,49.81,169.37,67.89,263.39,58.78c83.96-8.14,159.21-38.09,223.63-93.52c1.21-1.04,3.65-1.44,5.28-1.08
		c9.1,2.03,18.11,4.45,27.17,6.61c2.4,0.57,4.95,1.2,7.35,0.99c6.02-0.53,10.51-5.32,11-11.13c0.53-6.37-2.69-11.38-9.01-13.26
		C804.47,821.27,798.51,819.91,792.07,818.25z"/>
	<path d="M792.07,818.25c6.44,1.66,12.4,3.01,18.24,4.75c6.32,1.88,9.55,6.89,9.01,13.26c-0.49,5.81-4.98,10.6-11,11.13
		c-2.41,0.21-4.95-0.41-7.35-0.99c-9.07-2.16-18.08-4.58-27.17-6.61c-1.63-0.36-4.07,0.04-5.28,1.08
		c-64.42,55.42-139.66,85.38-223.63,93.52c-94.01,9.11-182.45-8.96-263.39-58.78c-16.1-9.91-30.75-22.22-45.85-33.71
		c-2.83-2.16-5.11-2.87-8.5-1.95c-9.48,2.56-19.01,4.98-28.59,7.12c-9.18,2.06-16.78-5.28-15.16-14.42
		c0.98-5.55,4.67-8.65,9.93-10.02c5.45-1.42,10.92-2.74,17.29-4.34c-1.68-1.97-2.87-3.42-4.12-4.82
		c-33.55-37.44-57.26-80.14-68.04-129.46c-12.5-57.16-7.05-112.82,17.35-166c20.93-45.62,35.91-93.11,48.59-141.51
		c12.4-47.34,25.31-94.54,38.06-141.79c1.17-4.33,2.83-8.53,4.14-12.83c1.74-5.72,5.06-9.87,11.26-10.63
		c5.99-0.73,9.98,2.47,13.16,7.3c26.25,39.97,52.62,79.85,78.77,119.88c2.41,3.69,4.28,4.66,8.67,3.12
		c60.2-21.08,122.13-28.31,185.57-22.22c34.45,3.31,68.07,10.73,100.7,22.35c3.6,1.28,5.42,0.85,7.59-2.48
		c26.16-40.02,52.54-79.9,78.75-119.88c3.34-5.1,7.25-8.89,13.74-8.06c6.71,0.85,9.52,5.67,11.52,11.63
		c15.98,47.57,27.49,96.36,39.69,144.96c13.2,52.57,30.56,103.56,51.95,153.52c38,88.75,28.25,174.41-23.66,255.31
		c-8.59,13.39-19.46,25.33-29.27,37.94C794.23,815.65,793.39,816.63,792.07,818.25z M263.23,252.57c-0.98,3.03-1.62,4.73-2.08,6.48
		c-11.35,43.14-22.76,86.27-34,129.44c-12.4,47.61-27.46,94.23-48.13,139.02c-21.9,47.46-27.19,97.1-16.72,148.34
		c4.87,23.83,13.44,46.33,25.11,67.65c0.78,1.42,2.65,3.05,4.11,3.14c3.77,0.24,7.6-0.52,11.4-0.52c30.99-0.06,61.99,0,92.98-0.06
		c5.02-0.01,9.24,1.39,12.04,5.71c2.66,4.09,2.91,8.43,0.52,12.77c-2.61,4.74-6.76,6.52-12.04,6.51
		c-28.5-0.05-56.99-0.03-85.49-0.01c-1.73,0-3.46,0.15-5.96,0.27c1.4,2.06,2.19,3.49,3.23,4.71c8.64,10.13,17.46,20.12,25.95,30.38
		c3.33,4.02,6.73,4.63,11.66,3.3c15.74-4.26,31.61-8.08,47.45-11.97c8.05-1.98,14.41,1.56,16.38,8.89
		c1.87,6.96-2.41,13.25-10.5,15.38c-3.86,1.02-7.75,1.96-11.62,2.94c-8.15,2.06-16.31,4.13-25.81,6.54
		c71.42,54.86,151.47,79.98,239.57,79.99c88.12,0.02,168.17-25.1,239.34-79.82c-2.62-0.8-4.12-1.33-5.65-1.72
		c-10.49-2.66-21-5.24-31.48-7.94c-8.14-2.1-12.41-8.39-10.58-15.33c1.98-7.48,8.38-10.9,16.84-8.82
		c16.49,4.05,32.98,8.09,49.42,12.34c3.11,0.8,5.27,0.56,7.44-1.99c9.47-11.18,19.09-22.22,28.61-33.35
		c0.78-0.91,1.21-2.12,2.15-3.81c-2.57,0-4.38,0-6.18,0c-28.16,0-56.32-0.05-84.49,0.04c-5.68,0.02-10.17-1.74-12.79-6.94
		c-4.4-8.71,1.86-18,12.24-18.02c33.16-0.06,66.32-0.03,99.48-0.02c1.16,0,2.47-0.22,3.47,0.22c3.19,1.4,4.73,0.06,6.19-2.73
		c36.44-69.46,41.06-140.82,9.54-212.8c-20.79-47.48-37.47-96.09-50.43-146.14c-10.85-41.9-21.96-83.72-32.98-125.58
		c-0.49-1.84-1.17-3.64-2.04-6.28c-1.52,2.15-2.49,3.45-3.38,4.8c-23.1,35.05-46.19,70.11-69.28,105.16
		c-5.58,8.47-10.06,10.02-19.35,6.49c-38.73-14.72-78.77-23.52-120.11-26.09c-59.21-3.68-116.56,5.14-172.05,26.11
		c-9.11,3.44-13.78,1.93-19.07-6.11c-21.07-32-42.13-64-63.21-96C269.93,262.6,266.9,258.08,263.23,252.57z"/>
	<path class="st0" d="M263.23,252.57c3.67,5.51,6.7,10.03,9.69,14.58c21.07,32,42.14,64,63.21,96c5.3,8.04,9.96,9.55,19.07,6.11
		c55.49-20.97,112.85-29.8,172.05-26.11c41.34,2.57,81.38,11.37,120.11,26.09c9.3,3.53,13.78,1.98,19.35-6.49
		c23.09-35.06,46.18-70.11,69.28-105.16c0.89-1.35,1.86-2.65,3.38-4.8c0.86,2.64,1.55,4.43,2.04,6.28
		c11.02,41.85,22.13,83.68,32.98,125.58c12.96,50.05,29.64,98.66,50.43,146.14c31.52,71.98,26.91,143.34-9.54,212.8
		c-1.47,2.79-3,4.14-6.19,2.73c-1-0.44-2.3-0.22-3.47-0.22c-33.16-0.01-66.32-0.04-99.48,0.02c-10.38,0.02-16.64,9.31-12.24,18.02
		c2.63,5.2,7.12,6.96,12.79,6.94c28.16-0.1,56.32-0.04,84.49-0.04c1.81,0,3.61,0,6.18,0c-0.94,1.69-1.37,2.9-2.15,3.81
		c-9.52,11.13-19.15,22.17-28.61,33.35c-2.17,2.56-4.33,2.8-7.44,1.99c-16.44-4.25-32.93-8.29-49.42-12.34
		c-8.46-2.08-14.86,1.34-16.84,8.82c-1.83,6.95,2.44,13.23,10.58,15.33c10.48,2.7,20.99,5.28,31.48,7.94
		c1.53,0.39,3.03,0.92,5.65,1.72c-71.17,54.72-151.22,79.84-239.34,79.82c-88.1-0.02-168.15-25.13-239.57-79.99
		c9.51-2.41,17.66-4.47,25.81-6.54c3.87-0.98,7.76-1.92,11.62-2.94c8.1-2.14,12.37-8.42,10.5-15.38
		c-1.97-7.33-8.33-10.87-16.38-8.89c-15.84,3.9-31.71,7.71-47.45,11.97c-4.93,1.33-8.33,0.72-11.66-3.3
		c-8.49-10.26-17.3-20.25-25.95-30.38c-1.04-1.22-1.83-2.65-3.23-4.71c2.5-0.12,4.23-0.27,5.96-0.27
		c28.5-0.02,56.99-0.04,85.49,0.01c5.27,0.01,9.43-1.77,12.04-6.51c2.39-4.35,2.14-8.68-0.52-12.77c-2.8-4.32-7.02-5.72-12.04-5.71
		c-30.99,0.06-61.99,0.01-92.98,0.06c-3.8,0.01-7.63,0.77-11.4,0.52c-1.46-0.09-3.33-1.72-4.11-3.14
		c-11.66-21.31-20.24-43.82-25.11-67.65c-10.46-51.24-5.18-100.89,16.72-148.34c20.67-44.79,35.73-91.41,48.13-139.02
		c11.24-43.17,22.65-86.3,34-129.44C261.61,257.3,262.25,255.6,263.23,252.57z M501.73,792.63c12.02,12.35,26.52,18,43.76,16.29
		c24.8-2.46,45.23-25.32,44.71-50.08c-0.21-9.78-9.87-15.78-18.31-11.29c-4.53,2.41-6.37,6.36-6.69,11.45
		c-0.93,14.78-11.74,25.19-25.8,25.16c-13.85-0.03-24.4-10.34-25.44-24.88c-0.58-8.03-5.65-13.27-12.78-13.2
		c-7.12,0.07-11.94,5.23-12.56,13.43c-1.1,14.49-11.72,24.68-25.67,24.64c-13.78-0.04-24.55-10.51-25.6-24.9
		c-0.61-8.38-5.77-13.56-13.12-13.18c-7.34,0.38-12.07,6.17-11.81,14.48c1.16,37.64,42.99,60.95,75.69,42.04
		C492.79,799.91,496.91,796.2,501.73,792.63z M500.59,720.07c10.32,0.06,19.03-2.61,26.26-8.05c16.15-12.15,16.56-33.53,0.88-46.27
		c-14.65-11.91-38.87-11.73-53.38,0.39c-14.67,12.25-14.75,32.43-0.08,44.68C481.86,717.16,490.78,719.95,500.59,720.07z
		 M361.3,567.86c-27.55-0.05-50.27,21.94-50.84,49.2c-0.17,8.23,5.31,14.12,12.93,13.88c6.85-0.22,11.45-5.06,12.05-12.71
		c0.96-12.11,7.78-21.17,18.27-24.27c16.26-4.8,31.45,6.03,33.06,23.57c0.82,8.92,6.35,14.2,14.02,13.37
		c7.37-0.8,11.83-7.09,11.08-15.62C409.44,587.9,388.13,567.91,361.3,567.86z M692.13,617.34c-0.36-27.42-23.27-49.62-51.06-49.48
		c-27.5,0.14-50.28,22.54-50.49,49.64c-0.05,7.19,4.75,12.83,11.44,13.43c7,0.63,12.57-4.17,13.67-11.62
		c0.53-3.59,0.81-7.36,2.14-10.67c4.42-11.01,15.91-17.33,27.37-15.54c12.46,1.95,20.79,11.57,21.98,25.36
		c0.68,7.92,5.97,12.91,13.24,12.48C687.39,630.53,692.23,624.9,692.13,617.34z M488.64,427.47c0,16.33,0.03,32.65-0.02,48.98
		c-0.02,5.58,1.7,10.21,6.83,12.95c8.91,4.76,18.42-1.74,18.46-12.74c0.09-22.99,0.03-45.98,0.03-68.97c0-10,0.09-19.99-0.04-29.99
		c-0.11-8.26-5.35-13.73-12.76-13.64c-7.37,0.08-12.44,5.59-12.48,13.94C488.58,394.48,488.64,410.98,488.64,427.47z M295.8,720.04
		c7.13,0.04,11.54-3,13.44-8.2c2.75-7.52-1.42-14.49-10.23-16.72c-20-5.07-40.02-10.03-60.04-15.04
		c-12.91-3.24-25.79-6.59-38.73-9.71c-10.35-2.49-18.45,4.26-16.86,13.97c1.03,6.27,5.43,9.1,11.22,10.54
		c26.48,6.58,52.94,13.24,79.41,19.85C281.76,716.67,289.52,718.51,295.8,720.04z M805.9,669.72c-1.1,0.23-3.07,0.57-5,1.05
		c-19.7,4.9-39.39,9.82-59.09,14.74c-12.91,3.23-25.85,6.37-38.73,9.72c-9.49,2.47-13.41,11.66-8.44,19.3
		c3.09,4.75,8.28,6.53,15.02,4.86c22.77-5.64,45.52-11.35,68.28-17.05c10.81-2.71,21.67-5.25,32.41-8.24
		c6.7-1.87,9.94-7.58,8.86-14.24C818.25,673.97,812.96,669.65,805.9,669.72z M577.4,416.54c0-11.99,0.05-23.97-0.02-35.96
		c-0.04-8.41-4.99-13.75-12.5-13.7c-7.46,0.05-12.45,5.48-12.47,13.85c-0.05,23.64-0.05,47.28,0.01,70.92
		c0.02,8.12,5.36,13.84,12.62,13.8c7.32-0.04,12.3-5.6,12.34-13.96C577.44,439.84,577.4,428.19,577.4,416.54z M425.18,416
		c0,11.82-0.04,23.64,0.01,35.46c0.04,8.35,5.03,13.95,12.31,13.99c7.29,0.04,12.63-5.63,12.65-13.77c0.06-23.64,0.06-47.28,0-70.92
		c-0.02-8.42-4.96-13.83-12.43-13.89c-7.51-0.06-12.48,5.28-12.53,13.67C425.14,392.36,425.18,404.18,425.18,416z"/>
	<path d="M501.73,792.63c-4.82,3.57-8.94,7.27-13.63,9.98c-32.7,18.91-74.53-4.39-75.69-42.04c-0.26-8.31,4.47-14.1,11.81-14.48
		c7.36-0.38,12.51,4.79,13.12,13.18c1.05,14.38,11.82,24.86,25.6,24.9c13.95,0.04,24.58-10.16,25.67-24.64
		c0.62-8.2,5.44-13.36,12.56-13.43c7.13-0.07,12.21,5.17,12.78,13.2c1.04,14.53,11.59,24.85,25.44,24.88
		c14.06,0.03,24.87-10.38,25.8-25.16c0.32-5.1,2.16-9.04,6.69-11.45c8.44-4.49,18.1,1.51,18.31,11.29
		c0.52,24.76-19.91,47.62-44.71,50.08C528.25,810.63,513.75,804.99,501.73,792.63z"/>
	<path d="M500.59,720.07c-9.81-0.12-18.73-2.91-26.32-9.25c-14.66-12.25-14.59-32.43,0.08-44.68c14.51-12.12,38.73-12.29,53.38-0.39
		c15.68,12.74,15.27,34.13-0.88,46.27C519.62,717.46,510.91,720.13,500.59,720.07z M501.22,695.91c3.63-1.34,7.21-2.18,10.27-3.93
		c3.58-2.05,3.41-4.44,0.16-6.96c-5.25-4.07-15.3-4.1-20.65-0.06c-3.31,2.5-3.55,4.9-0.03,6.95
		C494.02,693.7,497.6,694.55,501.22,695.91z"/>
	<path d="M361.3,567.86c26.83,0.05,48.14,20.04,50.56,47.42c0.75,8.53-3.71,14.82-11.08,15.62c-7.66,0.83-13.2-4.45-14.02-13.37
		c-1.61-17.54-16.8-28.38-33.06-23.57c-10.49,3.1-17.31,12.16-18.27,24.27c-0.61,7.65-5.2,12.49-12.05,12.71
		c-7.62,0.24-13.1-5.65-12.93-13.88C311.03,589.8,333.75,567.81,361.3,567.86z"/>
	<path d="M692.13,617.34c0.1,7.56-4.74,13.19-11.71,13.6c-7.27,0.43-12.56-4.56-13.24-12.48c-1.18-13.79-9.52-23.41-21.98-25.36
		c-11.46-1.79-22.95,4.53-27.37,15.54c-1.33,3.31-1.61,7.08-2.14,10.67c-1.11,7.45-6.67,12.26-13.67,11.62
		c-6.69-0.6-11.5-6.24-11.44-13.43c0.2-27.09,22.99-49.49,50.49-49.64C668.86,567.72,691.77,589.92,692.13,617.34z"/>
	<path d="M488.64,427.47c0-16.49-0.06-32.99,0.03-49.48c0.04-8.34,5.11-13.85,12.48-13.94c7.41-0.08,12.66,5.38,12.76,13.64
		c0.13,9.99,0.04,19.99,0.04,29.99c0,22.99,0.06,45.98-0.03,68.97c-0.05,11-9.56,17.5-18.46,12.74c-5.13-2.74-6.84-7.37-6.83-12.95
		C488.67,460.12,488.64,443.8,488.64,427.47z"/>
	<path d="M295.8,720.04c-6.28-1.53-14.04-3.37-21.78-5.3c-26.47-6.61-52.93-13.28-79.41-19.85c-5.79-1.44-10.2-4.27-11.22-10.54
		c-1.59-9.71,6.51-16.46,16.86-13.97c12.94,3.12,25.82,6.47,38.73,9.71c20.01,5.01,40.04,9.97,60.04,15.04
		c8.81,2.23,12.98,9.2,10.23,16.72C307.34,717.03,302.93,720.08,295.8,720.04z"/>
	<path d="M805.9,669.72c7.06-0.07,12.35,4.25,13.31,10.15c1.08,6.66-2.16,12.37-8.86,14.24c-10.73,2.99-21.59,5.53-32.41,8.24
		c-22.76,5.7-45.51,11.41-68.28,17.05c-6.74,1.67-11.93-0.11-15.02-4.86c-4.96-7.64-1.04-16.83,8.44-19.3
		c12.88-3.35,25.82-6.49,38.73-9.72c19.69-4.92,39.39-9.84,59.09-14.74C802.84,670.29,804.8,669.95,805.9,669.72z"/>
	<path d="M577.4,416.54c0,11.65,0.04,23.31-0.02,34.96c-0.04,8.35-5.02,13.92-12.34,13.96c-7.25,0.04-12.6-5.68-12.62-13.8
		c-0.06-23.64-0.06-47.28-0.01-70.92c0.02-8.37,5.01-13.8,12.47-13.85c7.51-0.05,12.45,5.29,12.5,13.7
		C577.45,392.56,577.4,404.55,577.4,416.54z"/>
	<path d="M425.18,416c0-11.82-0.05-23.64,0.02-35.46c0.05-8.39,5.02-13.73,12.53-13.67c7.46,0.06,12.41,5.46,12.43,13.89
		c0.05,23.64,0.06,47.28,0,70.92c-0.02,8.14-5.35,13.81-12.65,13.77c-7.29-0.04-12.28-5.64-12.31-13.99
		C425.14,439.64,425.18,427.82,425.18,416z"/>
	<path class="st0" d="M501.22,695.91c-3.61-1.36-7.2-2.22-10.24-4c-3.51-2.06-3.28-4.45,0.03-6.95c5.34-4.04,15.39-4.01,20.65,0.06
		c3.25,2.52,3.42,4.9-0.16,6.96C508.43,693.74,504.85,694.57,501.22,695.91z"/>
</g>
</svg>
